<svg width="267.243798828125px" height="189.235009765625px" xmlns="http://www.w3.org/2000/svg" viewBox="116.37810058593749 -19.617504882812497 267.243798828125 189.235009765625" style="background: rgba(0, 0, 0, 0);" preserveAspectRatio="xMidYMid"><defs><filter id="editing-hole" x="-100%" y="-100%" width="300%" height="300%"><feFlood flood-color="#000" result="black"></feFlood><feMorphology operator="dilate" radius="2" in="SourceGraphic" result="erode"></feMorphology><feGaussianBlur in="erode" stdDeviation="4" result="blur"></feGaussianBlur><feOffset in="blur" dx="2" dy="2" result="offset"></feOffset><feComposite operator="atop" in="offset" in2="black" result="merge"></feComposite><feComposite operator="in" in="merge" in2="SourceGraphic" result="inner-shadow"></feComposite></filter></defs><g filter="url(#editing-hole)"><g transform="translate(166.73906230926514, 111.79999923706055)"><path d="M57.20-27L57.20-27L57.20-27Q52.20-27 47.90-27.80L47.90-27.80L47.90-27.80Q49.30-23.40 53.80-7.90L53.80-7.90L53.80-7.90Q55.20-3.40 58.20 1.20L58.20 1.20L58.20 1.20Q62.30 7.10 65.80 7.10L65.80 7.10L65.80 7.10Q70 7.10 72.80-1.40L72.80-1.40L72.80-1.40Q73.30-3.40 73.85-3.40L73.85-3.40L73.85-3.40Q74.40-3.40 74.65-2.25L74.65-2.25L74.65-2.25Q74.90-1.10 74.90-0.70L74.90-0.70L74.90-0.70Q74.90 1.80 72.10 5.70L72.10 5.70L72.10 5.70Q68.40 11.20 64 11.20L64 11.20L64 11.20Q59.60 11.20 55.90 6.80L55.90 6.80L55.90 6.80Q52.20 2.40 48.65-9.25L48.65-9.25L48.65-9.25Q45.10-20.90 45.10-24.10L45.10-24.10L45.10-24.10Q45.10-24.60 45.20-24.90L45.20-24.90L45.20-24.90Q33.20-9 28-3.90L28-3.90L28-3.90Q16.40 7.40 4.30 7.40L4.30 7.40L4.30 7.40Q-4.20 7.40-4.20 1L-4.20 1L-4.20 1Q-4.20-2.20-2.20-6.05L-2.20-6.05L-2.20-6.05Q-0.20-9.90 2.70-12.80L2.70-12.80L2.70-12.80Q5.60-15.70 7.80-15.70L7.80-15.70L7.80-15.70Q8.20-15.70 8.20-15.50L8.20-15.50L8.20-15.50Q8.20-15 5.70-13L5.70-13L5.70-13Q3.20-11 0.90-7.35L0.90-7.35L0.90-7.35Q-1.40-3.70-1.40-0.70L-1.40-0.70L-1.40-0.70Q-1.40 4.60 5.70 4.60L5.70 4.60L5.70 4.60Q19 4.60 42.30-26.60L42.30-26.60L42.30-26.60Q43.60-28.30 44.50-29L44.50-29L42.90-29.60L42.90-29.60Q41.60-29.10 40.80-29.10L40.80-29.10L40.80-29.10Q38.70-29.10 38.70-30.80L38.70-30.80L38.70-30.80Q38.70-33.10 41.80-33.80L41.80-33.80L41.80-33.80Q42.20-33.90 42.50-33.90L42.50-33.90L42.50-33.90Q44.30-33.90 46.70-32.10L46.70-32.10L46.70-32.10Q55.50-41.90 55.70-42.10L55.70-42.10L55.70-42.10Q63-49.60 65.55-49.60L65.55-49.60L65.55-49.60Q68.10-49.60 68.10-47.40L68.10-47.40L68.10-47.40Q68.10-46.40 67.65-45.50L67.65-45.50L67.65-45.50Q67.20-44.60 66.60-44.60L66.60-44.60L66.60-44.60Q66-44.40 66-45.20L66-45.20L66-45.20Q66-45.60 66.60-46.40L66.60-46.40L66.60-46.40Q66.70-47.80 65.70-47.80L65.70-47.80L65.70-47.80Q62.50-47.80 50.20-30.80L50.20-30.80L50.20-30.80Q53.20-30.60 55.20-30.60L55.20-30.60L55.20-30.60Q78.40-30.60 84.20-42.60L84.20-42.60L84.20-42.60Q85.40-45.20 85.40-47.40L85.40-47.40L85.40-47.40Q85.40-51.80 81.40-55L81.40-55L81.40-55Q75-60.20 60.60-60.20L60.60-60.20L60.60-60.20Q46.20-60.20 31.20-52.90L31.20-52.90L31.20-52.90Q13-44 13-32L13-32L13-32Q13-28.10 17.90-28.10L17.90-28.10L17.90-28.10Q22.80-28.10 28.30-31.70L28.30-31.70L28.30-31.70Q33.80-35.30 35.70-38.80L35.70-38.80L35.70-38.80Q36.40-40.10 37.05-40.10L37.05-40.10L37.05-40.10Q37.70-40.10 37.40-39.30L37.40-39.30L37.40-39.30Q35.50-33.70 28.95-29.75L28.95-29.75L28.95-29.75Q22.40-25.80 15.30-25.80L15.30-25.80L15.30-25.80Q8.20-25.80 8.20-30.30L8.20-30.30L8.20-30.30Q8.20-30.60 8.20-31L8.20-31L8.20-31Q9.70-44.10 24.25-53.25L24.25-53.25L24.25-53.25Q38.80-62.40 59.30-62.40L59.30-62.40L59.30-62.40Q78.40-62.40 86.40-55.80L86.40-55.80L86.40-55.80Q91.20-51.80 91.20-46.40L91.20-46.40L91.20-46.40Q91.20-44.10 90.10-41.40L90.10-41.40L90.10-41.40Q87-34.10 77.40-30.55L77.40-30.55L77.40-30.55Q67.80-27 57.20-27ZM80.30 1.30L80.30 1.30L80.30 1.30Q79.20 1.30 78.30 1L78.30 1L78.30 1Q71.90-0.80 71.90-6.20L71.90-6.20L71.90-6.20Q71.90-13.20 80.70-22.40L80.70-22.40L80.70-22.40Q89.50-31.60 96.50-31.60L96.50-31.60L96.50-31.60Q98.80-31.60 100.25-30.35L100.25-30.35L100.25-30.35Q101.70-29.10 101.70-27.30L101.70-27.30L101.70-27.30Q101.70-21.70 93.25-16.60L93.25-16.60L93.25-16.60Q84.80-11.50 79.50-11.50L79.50-11.50L79.50-11.50Q78.70-11.50 78.10-11.70L78.10-11.70L78.10-11.70Q76.60-9 76.60-6L76.60-6L76.60-6Q76.60-0.80 81.55-0.80L81.55-0.80L81.55-0.80Q86.50-0.80 94.40-7.50L94.40-7.50L94.40-7.50Q100.50-12.40 104.80-17.90L104.80-17.90L104.80-17.90Q105.70-19.10 106.35-19.10L106.35-19.10L106.35-19.10Q107-19.10 107-18.50L107-18.50L107-18.50Q107-17.90 106.20-16.80L106.20-16.80L106.20-16.80Q100.80-9.70 93.20-4.20L93.20-4.20L93.20-4.20Q85.60 1.30 80.30 1.30ZM99.20-27.50L99.20-27.50L99.20-27.50Q99.20-28.70 96.65-28.70L96.65-28.70L96.65-28.70Q94.10-28.70 89.40-24.80L89.40-24.80L89.40-24.80Q83.10-19.60 79.60-13.90L79.60-13.90L79.60-13.90Q80.20-13.70 80.90-13.70L80.90-13.70L80.90-13.70Q84.70-13.70 91.05-17.75L91.05-17.75L91.05-17.75Q97.40-21.80 99-26.60L99-26.60L99-26.60Q99.20-27.10 99.20-27.50ZM117-31.60L117-31.60L117-31.60Q119.70-31.60 119.70-29.50L119.70-29.50L119.70-29.50Q119.70-28.90 119.40-28.30L119.40-28.30L119.40-28.30Q110.40-15.80 108.60-9.40L108.60-9.40L108.60-9.40Q131.90-32.70 136.90-32.70L136.90-32.70L136.90-32.70Q137.40-32.80 137.80-32.80L137.80-32.80L137.80-32.80Q140.60-32.80 140.60-30.30L140.60-30.30L140.60-30.30Q140.60-29.80 140.40-29.30L140.40-29.30L140.40-29.30Q140.20-28.80 136.40-23.90L136.40-23.90L136.40-23.90Q132-18.70 128.95-13.90L128.95-13.90L128.95-13.90Q125.90-9.10 125.90-5.90L125.90-5.90L125.90-5.90Q125.90-2.70 127.30-2.70L127.30-2.70L127.30-2.70Q131.70-2.70 142.60-14.80L142.60-14.80L142.60-14.80Q142.80-15 143.30-15.70L143.30-15.70L143.30-15.70Q144.80-17.50 145.10-17.50L145.10-17.50L145.10-17.50Q145.40-17.50 145.40-16.50L145.40-16.50L145.40-16.50Q145.40-15.50 144-13.90L144-13.90L144-13.90Q131.60 0.20 126.40 0.20L126.40 0.20L126.40 0.20Q121.50 0.20 121.50-5.20L121.50-5.20L121.50-5.20Q121.50-10.60 125.50-17.60L125.50-17.60L131.90-28L131.90-28Q125.10-23 119.80-17.05L119.80-17.05L119.80-17.05Q114.50-11.10 110.15-5.50L110.15-5.50L110.15-5.50Q105.80 0.10 105.10 0.10L105.10 0.10L105.10 0.10Q103.60 0.10 102.75-1.15L102.75-1.15L102.75-1.15Q101.90-2.40 101.90-4.25L101.90-4.25L101.90-4.25Q101.90-6.10 103.20-9.20L103.20-9.20L103.20-9.20Q104.50-12.30 106.50-16.70L106.50-16.70L100.50-10.40L100.50-10.40Q98.30-8.20 97.75-8.20L97.75-8.20L97.75-8.20Q97.20-8.20 97.20-8.85L97.20-8.85L97.20-8.85Q97.20-9.50 98-10.30L98-10.30L98-10.30Q101.70-14 104.40-17.40L104.40-17.40L104.40-17.40Q107-20.80 115.10-30.40L115.10-30.40L115.10-30.40Q116-31.60 117-31.60ZM169.65-39.85L169.65-39.85L169.65-39.85Q164.50-36.80 163.90-36.80L163.90-36.80L163.90-36.80Q163.30-36.80 163.30-37.40L163.30-37.40L163.30-37.40Q163.30-37.70 163.60-38L163.60-38L163.60-38Q168.60-41.80 174.10-46.20L174.10-46.20L174.10-46.20Q175.20-47 175.80-47L175.80-47L175.80-47Q176.80-47 176.80-45.75L176.80-45.75L176.80-45.75Q176.80-44.50 175.80-43.80L175.80-43.80L175.80-43.80Q174.80-42.90 169.65-39.85ZM146.30 1.30L146.30 1.30L146.30 1.30Q145.20 1.30 144.30 1L144.30 1L144.30 1Q137.90-0.80 137.90-6.20L137.90-6.20L137.90-6.20Q137.90-13.20 146.70-22.40L146.70-22.40L146.70-22.40Q155.50-31.60 162.50-31.60L162.50-31.60L162.50-31.60Q164.80-31.60 166.25-30.35L166.25-30.35L166.25-30.35Q167.70-29.10 167.70-27.30L167.70-27.30L167.70-27.30Q167.70-21.70 159.25-16.60L159.25-16.60L159.25-16.60Q150.80-11.50 145.50-11.50L145.50-11.50L145.50-11.50Q144.70-11.50 144.10-11.70L144.10-11.70L144.10-11.70Q142.60-9 142.60-6L142.60-6L142.60-6Q142.60-0.80 147.55-0.80L147.55-0.80L147.55-0.80Q152.50-0.80 160.40-7.50L160.40-7.50L160.40-7.50Q166.30-12.20 170.80-18L170.80-18L170.80-18Q171.70-19.20 172.35-19.20L172.35-19.20L172.35-19.20Q173.00-19.20 173.00-18.60L173.00-18.60L173.00-18.60Q173.00-18 172.20-16.90L172.20-16.90L172.20-16.90Q166.60-9.60 159.10-4.15L159.10-4.15L159.10-4.15Q151.60 1.30 146.30 1.30ZM165.20-27.50L165.20-27.50L165.20-27.50Q165.20-28.70 162.65-28.70L162.65-28.70L162.65-28.70Q160.10-28.70 155.40-24.80L155.40-24.80L155.40-24.80Q149.10-19.60 145.60-13.90L145.60-13.90L145.60-13.90Q146.20-13.70 146.90-13.70L146.90-13.70L146.90-13.70Q150.70-13.70 157.05-17.75L157.05-17.75L157.05-17.75Q163.40-21.80 165.00-26.60L165.00-26.60L165.00-26.60Q165.20-27.10 165.20-27.50Z" fill="#ccc"></path></g></g><style>text {
  font-size: 64px;
  font-family: Arial Black;
  dominant-baseline: central;
  text-anchor: middle;
}</style></svg>